Coordinates
version=1
nRows=7
nColumns=40
inDegrees=yes

Units are S.I. units (second, meters, Newtons, ...)
If the header above contains a line with 'inDegrees', this indicates whether rotational values are in degrees (yes) or radians (no).

endheader
time	pelvis_tilt	pelvis_list	pelvis_rotation	pelvis_tx	pelvis_ty	pelvis_tz	hip_flexion_r	hip_adduction_r	hip_rotation_r	knee_angle_r	knee_angle_r_beta	ankle_angle_r	subtalar_angle_r	mtp_angle_r	hip_flexion_l	hip_adduction_l	hip_rotation_l	knee_angle_l	knee_angle_l_beta	ankle_angle_l	subtalar_angle_l	mtp_angle_l	lumbar_extension	lumbar_bending	lumbar_rotation	arm_flex_r	arm_add_r	arm_rot_r	elbow_flex_r	pro_sup_r	wrist_flex_r	wrist_dev_r	arm_flex_l	arm_add_l	arm_rot_l	elbow_flex_l	pro_sup_l	wrist_flex_l	wrist_dev_l
      0.65000000	      1.45861691	      7.98334675	    -85.42555850	      0.20626211	      0.88627968	      0.06328550	     33.32002979	     -3.38315216	     -4.80712311	      5.78724850	      0.10100654	      3.98386210	     -0.00000000	      0.00000000	    -12.24943536	      2.71672241	     12.18580854	     11.01767593	      0.19229472	     13.21556832	      0.00000000	     -0.00000000	     -3.95893186	     -2.64169430	     -8.64218790	     -0.00000000	     -0.00000000	      0.00000000	      0.00000000	      0.00000000	      0.00000000	     -0.00000000	      0.00000000	      0.00000000	      0.00000000	      0.00000000	      0.00000000	      0.00000000	      0.00000000
      0.66000000	      1.48669039	      7.84962733	    -85.52728645	      0.20537517	      0.88443419	      0.08168441	     33.13088622	     -3.07786912	     -4.29250687	      6.88906267	      0.12023683	      1.30483125	      0.00000000	      0.00000000	    -11.81419392	      2.69528947	     11.44395117	     14.08334921	      0.24580081	     12.06386198	      0.00000000	      0.00000000	     -3.86040045	     -2.54191460	     -8.47083549	      0.00000000	      0.00000000	      0.00000000	      0.00000000	      0.00000000	      0.00000000	      0.00000000	      0.00000000	      0.00000000	      0.00000000	      0.00000000	      0.00000000	      0.00000000	      0.00000000
      0.67000000	      1.47627607	      7.51638979	    -85.68297437	      0.20442546	      0.88330116	      0.10012075	     32.72348472	     -2.75688560	     -3.97801246	      8.26298129	      0.14421623	     -1.14883555	     -0.00000000	     -0.00000000	    -11.28107345	      2.58771145	     10.40099862	     17.52757393	      0.30591388	     10.32276501	      0.00000000	     -0.00000000	     -3.99767897	     -2.36508668	     -8.33366038	      0.00000000	      0.00000000	     -0.00000000	      0.00000000	      0.00000000	      0.00000000	     -0.00000000	      0.00000000	      0.00000000	     -0.00000000	      0.00000000	      0.00000000	      0.00000000	      0.00000000
      0.68000000	      1.30695776	      7.27556569	    -85.91129427	      0.20325744	      0.88247047	      0.11842985	     32.46620618	     -2.29214019	     -3.63567800	      9.88204133	      0.17247416	     -3.43915531	      0.00000000	      0.00000000	    -10.27169898	      2.26799878	      9.05058189	     21.43527494	      0.37411612	      8.10106954	      0.00000000	      0.00000000	     -4.02735830	     -2.01464947	     -7.98306176	      0.00000000	      0.00000000	      0.00000000	      0.00000000	      0.00000000	      0.00000000	      0.00000000	      0.00000000	      0.00000000	      0.00000000	      0.00000000	      0.00000000	      0.00000000	      0.00000000
      0.69000000	      1.12066665	      7.00265322	    -86.20787473	      0.20190352	      0.88206517	      0.13657874	     32.39018826	     -1.83786457	     -3.31564262	     12.14167272	      0.21191217	     -4.61442666	      0.00000000	      0.00000000	     -8.96791357	      1.85362495	      7.51075756	     25.74645213	      0.44936036	      5.46681749	      0.00000000	      0.00000000	     -4.12023203	     -1.64819544	     -7.61590415	      0.00000000	      0.00000000	      0.00000000	      0.00000000	      0.00000000	      0.00000000	      0.00000000	      0.00000000	      0.00000000	      0.00000000	      0.00000000	      0.00000000	      0.00000000	      0.00000000
      0.70000000	      0.73067104	      6.53315660	    -86.49425513	      0.20034789	      0.88232840	      0.15477774	     32.20835120	     -1.21883875	     -3.18500635	     14.82484381	      0.25874234	     -4.63530315	      0.00000000	     -0.00000000	     -7.61651697	      1.08226978	      5.83000899	     30.32046313	      0.52919191	      2.41600257	     -0.00000000	     -0.00000000	     -4.44460443	     -1.05061628	     -7.20592524	     -0.00000000	      0.00000000	      0.00000000	      0.00000000	      0.00000000	     -0.00000000	      0.00000000	      0.00000000	     -0.00000000	     -0.00000000	      0.00000000	      0.00000000	      0.00000000	     -0.00000000
      0.71000000	      0.50212114	      6.34821718	    -86.87260302	      0.19867068	      0.88238848	      0.17243805	     32.53040548	     -0.76609893	     -2.85141941	     18.01911513	      0.31449289	     -3.51412345	      0.00000000	      0.00000000	     -5.66374923	      0.43410703	      4.18021565	     35.26594157	      0.61550679	     -0.54800366	      0.00000000	      0.00000000	     -4.49925137	     -0.67252488	     -6.75017490	      0.00000000	      0.00000000	      0.00000000	      0.00000000	      0.00000000	      0.00000000	      0.00000000	      0.00000000	      0.00000000	      0.00000000	      0.00000000	      0.00000000	      0.00000000	      0.00000000
